<svg width="119" height="15" viewBox="0 0 119 15" fill="none" xmlns="http://www.w3.org/2000/svg">
<path d="M0.912 14V2.8H6.304C7.34933 2.8 8.25067 2.97067 9.008 3.312C9.776 3.65333 10.368 4.144 10.784 4.784C11.2 5.41333 11.408 6.16 11.408 7.024C11.408 7.888 11.2 8.63467 10.784 9.264C10.368 9.89333 9.776 10.384 9.008 10.736C8.25067 11.0773 7.34933 11.248 6.304 11.248H3.008L4.688 9.632V14H0.912ZM4.688 10.048L3.008 8.336H6.064C6.58667 8.336 6.97067 8.21867 7.216 7.984C7.472 7.74933 7.6 7.42933 7.6 7.024C7.6 6.61867 7.472 6.29867 7.216 6.064C6.97067 5.82933 6.58667 5.712 6.064 5.712H3.008L4.688 4V10.048ZM17.7523 14V12.448L17.4963 12.032V9.088C17.4963 8.66133 17.3629 8.336 17.0963 8.112C16.8403 7.888 16.4189 7.776 15.8323 7.776C15.4376 7.776 15.0376 7.84 14.6323 7.968C14.2269 8.08533 13.8803 8.25067 13.5923 8.464L12.4403 6.08C12.9523 5.76 13.5656 5.51467 14.2803 5.344C14.9949 5.17333 15.6936 5.088 16.3763 5.088C17.8803 5.088 19.0429 5.424 19.8643 6.096C20.6963 6.768 21.1123 7.83467 21.1123 9.296V14H17.7523ZM15.2723 14.16C14.5576 14.16 13.9603 14.0373 13.4803 13.792C13.0003 13.5467 12.6376 13.2213 12.3923 12.816C12.1469 12.4 12.0243 11.9413 12.0243 11.44C12.0243 10.8747 12.1683 10.3947 12.4563 10C12.7443 9.60533 13.1816 9.30667 13.7682 9.104C14.3656 8.90133 15.1176 8.8 16.0243 8.8H17.8483V10.544H16.6003C16.2163 10.544 15.9336 10.608 15.7523 10.736C15.5816 10.8533 15.4963 11.0347 15.4963 11.28C15.4963 11.4827 15.5709 11.6533 15.7203 11.792C15.8803 11.92 16.0936 11.984 16.3602 11.984C16.6056 11.984 16.8296 11.92 17.0323 11.792C17.2456 11.6533 17.4003 11.44 17.4963 11.152L17.9603 12.224C17.8216 12.8747 17.5283 13.36 17.0803 13.68C16.6323 14 16.0296 14.16 15.2723 14.16ZM22.675 14V5.248H26.115V7.888L25.555 7.136C25.8217 6.45333 26.2483 5.94133 26.835 5.6C27.4217 5.25867 28.1257 5.088 28.947 5.088V8.288C28.787 8.26667 28.643 8.25067 28.515 8.24C28.3977 8.22933 28.275 8.224 28.147 8.224C27.603 8.224 27.155 8.368 26.803 8.656C26.4617 8.93333 26.291 9.41867 26.291 10.112V14H22.675ZM34.7835 14V12.448L34.5275 12.032V9.088C34.5275 8.66133 34.3942 8.336 34.1275 8.112C33.8715 7.888 33.4502 7.776 32.8635 7.776C32.4688 7.776 32.0688 7.84 31.6635 7.968C31.2582 8.08533 30.9115 8.25067 30.6235 8.464L29.4715 6.08C29.9835 5.76 30.5968 5.51467 31.3115 5.344C32.0262 5.17333 32.7248 5.088 33.4075 5.088C34.9115 5.088 36.0742 5.424 36.8955 6.096C37.7275 6.768 38.1435 7.83467 38.1435 9.296V14H34.7835ZM32.3035 14.16C31.5888 14.16 30.9915 14.0373 30.5115 13.792C30.0315 13.5467 29.6688 13.2213 29.4235 12.816C29.1782 12.4 29.0555 11.9413 29.0555 11.44C29.0555 10.8747 29.1995 10.3947 29.4875 10C29.7755 9.60533 30.2128 9.30667 30.7995 9.104C31.3968 8.90133 32.1488 8.8 33.0555 8.8H34.8795V10.544H33.6315C33.2475 10.544 32.9648 10.608 32.7835 10.736C32.6128 10.8533 32.5275 11.0347 32.5275 11.28C32.5275 11.4827 32.6022 11.6533 32.7515 11.792C32.9115 11.92 33.1248 11.984 33.3915 11.984C33.6368 11.984 33.8608 11.92 34.0635 11.792C34.2768 11.6533 34.4315 11.44 34.5275 11.152L34.9915 12.224C34.8528 12.8747 34.5595 13.36 34.1115 13.68C33.6635 14 33.0608 14.16 32.3035 14.16ZM41.694 14L38.654 5.248H42.078L44.382 12.352H42.734L45.15 5.248H48.222L50.526 12.352H48.926L51.31 5.248H54.478L51.438 14H47.918L46.078 8.368H47.134L45.214 14H41.694ZM55.175 14V5.248H58.791V14H55.175ZM56.983 4.544C56.3217 4.544 55.7937 4.368 55.399 4.016C55.0043 3.664 54.807 3.22667 54.807 2.704C54.807 2.18133 55.0043 1.744 55.399 1.392C55.7937 1.04 56.3217 0.863999 56.983 0.863999C57.6443 0.863999 58.1723 1.02933 58.567 1.36C58.9617 1.69067 59.159 2.11733 59.159 2.64C59.159 3.19467 58.9617 3.65333 58.567 4.016C58.1723 4.368 57.6443 4.544 56.983 4.544ZM60.3938 14V2.128H64.0098V14H60.3938ZM69.4525 14.16C68.6952 14.16 67.9912 13.9787 67.3405 13.616C66.7005 13.2427 66.1885 12.72 65.8045 12.048C65.4205 11.3653 65.2285 10.5547 65.2285 9.616C65.2285 8.67733 65.4205 7.872 65.8045 7.2C66.1885 6.51733 66.7005 5.99467 67.3405 5.632C67.9912 5.26933 68.6952 5.088 69.4525 5.088C70.2205 5.088 70.8498 5.25333 71.3405 5.584C71.8312 5.904 72.1938 6.4 72.4285 7.072C72.6632 7.73333 72.7805 8.58133 72.7805 9.616C72.7805 10.6613 72.6685 11.52 72.4445 12.192C72.2312 12.864 71.8792 13.36 71.3885 13.68C70.9085 14 70.2632 14.16 69.4525 14.16ZM70.3165 11.344C70.5832 11.344 70.8232 11.28 71.0365 11.152C71.2498 11.024 71.4205 10.832 71.5485 10.576C71.6765 10.3093 71.7405 9.98933 71.7405 9.616C71.7405 9.232 71.6765 8.91733 71.5485 8.672C71.4205 8.416 71.2498 8.224 71.0365 8.096C70.8232 7.968 70.5832 7.904 70.3165 7.904C70.0498 7.904 69.8098 7.968 69.5965 8.096C69.3832 8.224 69.2125 8.416 69.0845 8.672C68.9565 8.91733 68.8925 9.232 68.8925 9.616C68.8925 9.98933 68.9565 10.3093 69.0845 10.576C69.2125 10.832 69.3832 11.024 69.5965 11.152C69.8098 11.28 70.0498 11.344 70.3165 11.344ZM71.8525 14V12.816L71.8365 9.616L71.6765 6.416V2.128H75.2925V14H71.8525ZM85.2586 6.96H90.2506V9.68H85.2586V6.96ZM85.5146 11.152H91.1146V14H81.8026V2.8H90.9066V5.648H85.5146V11.152ZM96.2963 14.16C95.5389 14.16 94.8349 13.9787 94.1843 13.616C93.5443 13.2427 93.0323 12.72 92.6483 12.048C92.2643 11.3653 92.0723 10.5547 92.0723 9.616C92.0723 8.67733 92.2643 7.872 92.6483 7.2C93.0323 6.51733 93.5443 5.99467 94.1843 5.632C94.8349 5.26933 95.5389 5.088 96.2963 5.088C97.0643 5.088 97.6936 5.25333 98.1843 5.584C98.6749 5.904 99.0376 6.4 99.2723 7.072C99.5069 7.73333 99.6243 8.58133 99.6243 9.616C99.6243 10.6613 99.5123 11.52 99.2883 12.192C99.0749 12.864 98.7229 13.36 98.2323 13.68C97.7523 14 97.1069 14.16 96.2963 14.16ZM97.1603 11.344C97.4269 11.344 97.6669 11.28 97.8803 11.152C98.0936 11.024 98.2643 10.832 98.3923 10.576C98.5203 10.3093 98.5843 9.98933 98.5843 9.616C98.5843 9.232 98.5203 8.91733 98.3923 8.672C98.2643 8.416 98.0936 8.224 97.8803 8.096C97.6669 7.968 97.4269 7.904 97.1603 7.904C96.8936 7.904 96.6536 7.968 96.4403 8.096C96.2269 8.224 96.0563 8.416 95.9283 8.672C95.8003 8.91733 95.7363 9.232 95.7363 9.616C95.7363 9.98933 95.8003 10.3093 95.9283 10.576C96.0563 10.832 96.2269 11.024 96.4403 11.152C96.6536 11.28 96.8936 11.344 97.1603 11.344ZM98.6963 14V12.816L98.6803 9.616L98.5203 6.416V2.128H102.136V14H98.6963ZM107.386 14.16C106.692 14.16 106.063 14.0213 105.498 13.744C104.943 13.456 104.506 13.0133 104.186 12.416C103.866 11.808 103.706 11.0293 103.706 10.08V5.248H107.322V9.456C107.322 10.0747 107.423 10.5067 107.626 10.752C107.828 10.9973 108.106 11.12 108.458 11.12C108.671 11.12 108.868 11.0667 109.05 10.96C109.242 10.8427 109.396 10.656 109.514 10.4C109.631 10.1333 109.69 9.78667 109.69 9.36V5.248H113.306V14H109.866V11.472L110.554 12.16C110.244 12.8427 109.802 13.3493 109.226 13.68C108.66 14 108.047 14.16 107.386 14.16Z" fill="#FFFCFB"/>
<path d="M116.541 14.16C115.944 14.16 115.443 13.968 115.037 13.584C114.632 13.1893 114.429 12.688 114.429 12.08C114.429 11.4613 114.632 10.9653 115.037 10.592C115.443 10.2187 115.944 10.032 116.541 10.032C117.139 10.032 117.64 10.2187 118.045 10.592C118.451 10.9653 118.653 11.4613 118.653 12.08C118.653 12.688 118.451 13.1893 118.045 13.584C117.64 13.968 117.139 14.16 116.541 14.16Z" fill="#97BD22"/>
</svg>
